<svg id="Calque_1" data-name="Calque 1" xmlns="http://www.w3.org/2000/svg" viewBox="0 0 498 491.72"><defs><style>.cls-1{fill:#d9003c;}</style></defs><title>URCT_LOGO</title><path class="cls-1" d="M125.52,380.35c13.91,15.12,13.48,28,0,40.49l-36.6,33.91L73.39,437.88l35.68-33.07c6-5.53,7-8.6,2.83-13.09s-7.61-3.11-12.91,1.8L63.14,426.75,47.7,410l34.11-31.61C95.48,365.7,110.38,363.89,125.52,380.35Z" transform="translate(-1 -4.14)"/><path class="cls-1" d="M87.87,320.31,61.31,347.83l32.34-12.67,7.5,19.28L30.39,382.16l-9-23.07,24.35-26L15.84,344.76,8.43,325.7,79.18,298Z" transform="translate(-1 -4.14)"/><path class="cls-1" d="M81,233.36,51.52,237l-.46,3.13,28.35,4.09-3.2,22.28L1,255.64c.81-7.2,2.46-18.73,3.72-27.46,2.84-19.82,12.41-27.81,26.7-25.75,8.82,1.27,15.36,5.65,17.86,12.06l35.35-6.67Zm-59.55-.94c-.15,1-.19,2.15-.25,3.39l13.17,1.9c.16-1.12.31-2.24.48-3.36.95-6.61-2.13-8.19-5.59-8.69C25.54,225.13,22.41,225.59,21.42,232.42Z" transform="translate(-1 -4.14)"/><path class="cls-1" d="M87.89,205.69,18.13,175.53l9.1-21.19L97,184.5Z" transform="translate(-1 -4.14)"/><path class="cls-1" d="M99.33,178.18,38.24,132.89l26-35.28,14.41,10.68L66.18,125.2l8.34,6.19L85.71,116.2,100,126.82,88.84,142l9.51,7.05L111,131.88l14.5,10.75Z" transform="translate(-1 -4.14)"/><path class="cls-1" d="M157.33,118.2,124.47,98.72l19.82,28.58-16.92,11.82L84,76.58l20.25-14.14L135.17,80.1,116.82,53.65,133.57,42l43.37,62.54Z" transform="translate(-1 -4.14)"/><path class="cls-1" d="M231.53,93.4c-19,2.66-29.11-6.32-33.12-35.22-3.62-26,5-41,23.63-43.63a34.08,34.08,0,0,1,18.5,2.09L238.4,33.84a22,22,0,0,0-9.51-1.18c-6.25.88-9.61,5.35-7.29,22,2.41,17.37,6.94,19.59,12.3,18.84a25.7,25.7,0,0,0,9.75-4.34l6.85,16.51A40.56,40.56,0,0,1,231.53,93.4Z" transform="translate(-1 -4.14)"/><path class="cls-1" d="M272.75,46.88l-16.53-5.94,13-36.8L291,12Z" transform="translate(-1 -4.14)"/><path class="cls-1" d="M286.66,93.37l24.8-72,41.33,14.33-5.85,17-19.81-6.87-3.38,9.83,17.78,6.17-5.82,16.89-17.78-6.17-3.86,11.22,20.13,7-5.89,17.1Z" transform="translate(-1 -4.14)"/><path class="cls-1" d="M348.93,124c-7.33-5.27-12-11.39-16-21.09L348.45,94c3.06,6.38,6.55,11.39,9.85,13.77,2.83,2,5.35,1.63,7.13-.86,5.44-7.63-17.64-23.25-3.78-42.65,8.86-12.4,22.63-12.66,34.9-3.83a41.77,41.77,0,0,1,14.58,19l-14.85,8.38c-2.94-5.59-5.71-9.67-8.82-11.91-2.94-2.11-5.17-1.49-6.55.44-5,7,18.25,23.55,4.4,42.95C375.2,133.42,360.47,132.29,348.93,124Z" transform="translate(-1 -4.14)"/><path class="cls-1" d="M437.36,130.17,392.58,165.6l-14.16-18,44.77-35.43-7.47-9.51,14.86-11.76L459.76,128l-14.87,11.76Z" transform="translate(-1 -4.14)"/><path class="cls-1" d="M476.43,224.09l-55.63,12.6-5-22.4,55.63-12.6-2.65-11.81,18.47-4.18,10.37,46.11L479.11,236Z" transform="translate(-1 -4.14)"/><path class="cls-1" d="M419.74,282.12l.09-.9c2.76-27.23,18.47-31.31,42.59-28.85,29.49,3,38.33,17.56,36.31,37.36l-.09.9c-2.76,27.23-18.69,31.29-42.46,28.86C426.46,316.46,417.72,302,419.74,282.12Zm60.79,6.1c.73-7.2-4.38-10.45-20.3-12.08-14.91-1.52-21.3,0-22.07,7.52-.73,7.2,4.38,10.45,20.2,12.06C473.49,297.27,479.76,295.76,480.53,288.21Z" transform="translate(-1 -4.14)"/><path class="cls-1" d="M401.47,343.54c9.67-18.15,21.92-22,38.13-13.27l43.92,23.57-10.79,20.25-42.83-23c-7.16-3.84-10.39-3.78-13.26,1.61s-.43,8.23,5.93,11.65l43,23.09-10.74,20.14-40.94-22C397.54,376.82,390.94,363.28,401.47,343.54Z" transform="translate(-1 -4.14)"/><path class="cls-1" d="M399.54,438.32l-39.18-41.57L377,381l39.19,41.57,8.76-8.31,13,13.8L403.7,460.51l-13-13.8Z" transform="translate(-1 -4.14)"/><path class="cls-1" d="M233.53,324.24v-86.7l-15.47,7L213.34,212l26.23-10.79h32.26V324.24Z" transform="translate(-1 -4.14)"/><ellipse class="cls-1" cx="249.49" cy="470.4" rx="21.24" ry="21.32"/></svg>